<?xml version="1.0" encoding="UTF-8"?>
<svg width="35px" height="35px" viewBox="0 0 35 35" version="1.1" xmlns="http://www.w3.org/2000/svg" xmlns:xlink="http://www.w3.org/1999/xlink">
    <!-- Generator: Sketch 41.1 (35376) - http://www.bohemiancoding.com/sketch -->
    <title>Group 162</title>
    <desc>Created with Sketch.</desc>
    <defs></defs>
    <g id="Page-1" stroke="none" stroke-width="1" fill="none" fill-rule="evenodd">
        <g id="第一部分" transform="translate(-974.000000, -3378.000000)">
            <g id="Group-162" transform="translate(974.000000, 3378.000000)">
                <g id="Group-161-Copy">
                    <g id="Group-23" fill="#EA5A12">
                        <circle id="Oval-13" cx="17.5" cy="17.5" r="17.5"></circle>
                    </g>
                    <g id="收到" transform="translate(10.769231, 4.038462)" fill="#FFFFFF">
                        <g id="Group" transform="translate(0.000000, 1.346154)">
                            <path d="M8.81340417,19.7692108 C8.43353979,20.1490751 8.12300334,20.0201803 8.12300334,19.483108 L8.12300334,3.4957674 C8.12300334,2.9586951 7.68357203,2.51926382 7.14649977,2.51926382 L7.14649977,2.51926382 C6.60942747,2.51926382 6.16999619,2.95869513 6.16999619,3.4957674 L6.16999619,19.483108 C6.16999619,20.0201803 5.85945974,20.1490751 5.47959537,19.7692108 L2.75515881,17.0457441 C2.37529444,16.6658797 1.75425281,16.6658797 1.37438844,17.0457441 C0.994524066,17.4256084 0.994524066,18.0466501 1.37438844,18.4265144 L6.45613025,23.5072551 C6.83599462,23.8871195 7.45703625,23.8871195 7.83690062,23.5072551 L12.9176413,18.4265144 C13.2975057,18.0466501 13.2975057,17.4256084 12.9176413,17.0457441 C12.5377769,16.6658797 11.9167353,16.6658797 11.5368709,17.0457441 L8.81340417,19.7692108 Z" id="Shape"></path>
                        </g>
                    </g>
                </g>
            </g>
        </g>
    </g>
</svg>